<svg width="1200" height="630" viewBox="0 0 1200 630" xmlns="http://www.w3.org/2000/svg">
  <rect width="1200" height="630" fill="#FFFFFF"/>

  <!-- Subtle grid pattern -->
  <defs>
    <pattern id="grid" width="60" height="60" patternUnits="userSpaceOnUse">
      <path d="M 60 0 L 0 0 0 60" fill="none" stroke="#E6E8EB" stroke-width="1"/>
    </pattern>
  </defs>
  <rect width="1200" height="630" fill="url(#grid)" opacity="0.5"/>

  <!-- Accent bar -->
  <rect x="0" y="0" width="8" height="630" fill="#1F3A8A"/>

  <!-- Logo mark -->
  <g transform="translate(80, 80)">
    <rect width="64" height="64" rx="12" fill="#1F3A8A"/>
    <path d="M14 16 L30 16 L30 30 L22 30 L22 48 L14 48 Z" fill="#FFFFFF"/>
    <path d="M50 16 L34 16 L34 24 L42 24 L42 28 L34 28 L34 36 L42 36 L42 40 L34 40 L34 48 L50 48 L50 40 L42 40 L42 36 L50 36 L50 28 L42 28 L42 24 L50 24 Z" fill="#FFFFFF" opacity="0.7"/>
  </g>

  <!-- Name -->
  <text x="80" y="220" font-family="Inter, system-ui, sans-serif" font-size="72" font-weight="600" fill="#111111">Peyton Salvant</text>

  <!-- Role -->
  <text x="80" y="280" font-family="Inter, system-ui, sans-serif" font-size="32" font-weight="500" fill="#5F6368">Full Stack Engineer</text>

  <!-- Divider -->
  <line x1="80" y1="320" x2="400" y2="320" stroke="#E6E8EB" stroke-width="2"/>

  <!-- Keywords -->
  <text x="80" y="380" font-family="IBM Plex Mono, monospace" font-size="20" fill="#1F3A8A" letter-spacing="0.1em">REACT NATIVE</text>
  <text x="280" y="380" font-family="IBM Plex Mono, monospace" font-size="20" fill="#5F6368">·</text>
  <text x="310" y="380" font-family="IBM Plex Mono, monospace" font-size="20" fill="#1F3A8A" letter-spacing="0.1em">GRAPHQL</text>
  <text x="460" y="380" font-family="IBM Plex Mono, monospace" font-size="20" fill="#5F6368">·</text>
  <text x="490" y="380" font-family="IBM Plex Mono, monospace" font-size="20" fill="#1F3A8A" letter-spacing="0.1em">AI SYSTEMS</text>

  <!-- Description -->
  <text x="80" y="440" font-family="Source Serif Pro, Georgia, serif" font-size="24" fill="#5F6368">Case studies in full stack architecture,</text>
  <text x="80" y="475" font-family="Source Serif Pro, Georgia, serif" font-size="24" fill="#5F6368">AI systems, and production platforms.</text>

  <!-- URL -->
  <text x="80" y="560" font-family="IBM Plex Mono, monospace" font-size="18" fill="#5F6368" letter-spacing="0.05em">peytonsalvant.vercel.app</text>

  <!-- Decorative elements -->
  <circle cx="1050" cy="150" r="120" fill="none" stroke="#1F3A8A" stroke-width="2" opacity="0.1"/>
  <circle cx="1050" cy="150" r="80" fill="none" stroke="#1F3A8A" stroke-width="2" opacity="0.15"/>
  <circle cx="1050" cy="150" r="40" fill="#1F3A8A" opacity="0.08"/>

  <rect x="950" y="400" width="180" height="120" rx="4" fill="none" stroke="#E6E8EB" stroke-width="2"/>
  <rect x="960" y="410" width="160" height="8" rx="2" fill="#E6E8EB"/>
  <rect x="960" y="430" width="120" height="8" rx="2" fill="#E6E8EB"/>
  <rect x="960" y="450" width="140" height="8" rx="2" fill="#E6E8EB"/>
  <rect x="960" y="480" width="60" height="24" rx="4" fill="#1F3A8A" opacity="0.1"/>
</svg>
